<svg xmlns="http://www.w3.org/2000/svg" xmlns:xlink="http://www.w3.org/1999/xlink" id="macbook_1_" x="0" y="0" version="1.1" viewBox="0 0 1155 600" xml:space="preserve" style="enable-background:new 0 0 1155 600"><style type="text/css">.st1{fill:#fff;stroke:#e7eaf3;stroke-miterlimit:10}.st2{fill:#f7f7f7}.st3{fill:#fff}.st4{fill:#efefef}.st5{fill:url(#SVGID_1_)}.st6{clip-path:url(#SVGID_4_)}</style><g id="laptop"><path d="M958.3,577H194.5c-14.4,0-26.2-11.8-26.2-26.2V26.7c0-14.4,11.8-26.2,26.2-26.2h763.9 c14.4,0,26.2,11.8,26.2,26.2v524.2C984.5,565.2,972.7,577,958.3,577z" class="st1"/><circle cx="575" cy="23.8" r="3" class="st2"/><path d="M1073.3,561.2H79.9c-1.5,0-2.8-1.3-2.8-2.8l0,0c0-1.5,1.3-2.8,2.8-2.8h993.4c1.5,0,2.8,1.3,2.8,2.8l0,0 C1076.1,559.9,1074.9,561.2,1073.3,561.2z" class="st3"/><path d="M576.6,563L77,561.2c0,0,24.1,11.3,117.8,15.8H575h3.1h380.2c93.7-4.5,117.8-15.8,117.8-15.8L576.6,563z" class="st4"/><linearGradient id="SVGID_1_" x1="480.9" x2="672" y1="20.8" y2="20.8" gradientTransform="matrix(1 0 0 -1 0 580)" gradientUnits="userSpaceOnUse"><stop offset="0" style="stop-color:#f0f1f2"/><stop offset=".052" style="stop-color:#f6f7f8"/><stop offset=".171" style="stop-color:#fdfdfd"/><stop offset=".5" style="stop-color:#fff"/><stop offset=".829" style="stop-color:#fdfdfd"/><stop offset=".948" style="stop-color:#f6f7f8"/><stop offset="1" style="stop-color:#f0f1f2"/></linearGradient><path d="M668.4,562.7h-184c-1.9,0-3.5-1.6-3.5-3.5v-3.5H672v3.5C672,561.1,670.4,562.7,668.4,562.7z" class="st5"/><g><g><defs><rect id="SVGID_3_" width="752.5" height="469.7" x="198.7" y="38"/></defs><clipPath id="SVGID_4_"><use xlink:href="#SVGID_3_" style="overflow:visible"/></clipPath><g class="st6"><image style="overflow:visible;enable-background:new" width="753" height="470" transform="matrix(1 0 0 1 198.5 37.8352)" xlink:href="capture.png"/></g></g></g></g></svg>