<svg xmlns="http://www.w3.org/2000/svg" width="2500" height="2500" fill="none" viewBox="0 0 2500 2500"><path fill="#fff" fill-rule="evenodd" d="M2500 1250C2500 1940.36 1940.36 2500 1250 2500C559.644 2500 0 1940.36 0 1250C0 559.644 559.644 0 1250 0C1940.36 0 2500 559.644 2500 1250ZM2077.38 1300.75C2081.88 1284.22 2084 1267.12 2083.75 1250C2082.47 1214.81 2071.03 1180.74 2050.81 1151.91C2030.6 1123.07 2002.48 1100.71 1969.84 1087.5C1937.21 1074.29 1901.45 1070.8 1866.88 1077.47C1832.3 1084.11 1800.39 1100.62 1775 1125C1739.68 1100.99 1702.68 1079.56 1664.28 1060.88C1587.4 1023.41 1505.51 997.249 1421.16 983.188C1379.03 976.156 1336.44 972.156 1293.75 971.25L1375 581.25L1642.5 637.5C1649.06 698.562 1699.03 745.812 1760.38 748.969C1821.69 752.125 1876.25 710.25 1889.03 650.188C1901.84 590.125 1869.09 529.656 1811.81 507.531C1754.53 485.406 1689.66 508.156 1658.75 561.25L1352.5 500C1347.5 498.906 1342.31 498.812 1337.28 499.719C1332.22 500.656 1327.41 502.562 1323.09 505.344C1318.81 508.125 1315.09 511.75 1312.22 515.969C1309.31 520.219 1307.28 524.969 1306.25 530L1213.75 963.75C1170.53 964.406 1127.41 968.188 1084.75 975.094C1042.09 982 999.969 991.969 958.75 1004.97C917.531 1017.97 877.313 1033.97 838.406 1052.78C799.509 1071.62 762.026 1093.25 726.25 1117.5C706.978 1099.37 683.995 1085.65 658.892 1077.28C633.79 1068.92 607.169 1066.12 580.875 1069.06C554.584 1072 529.246 1080.62 506.62 1094.32C483.993 1108.03 464.62 1126.49 449.844 1148.44C435.055 1170.38 425.215 1195.28 421.006 1221.41C416.797 1247.54 418.32 1274.27 425.469 1299.75C432.63 1325.22 445.239 1348.83 462.425 1368.94C479.61 1389.06 500.961 1405.2 525 1416.25C524.656 1420.81 524.375 1425.41 524.219 1430C523.843 1439.16 523.843 1448.34 524.219 1457.5C524.375 1462.09 524.656 1466.69 525 1471.25C525 1751.25 851.25 1978.75 1253.75 1978.75C1656.25 1978.75 1982.5 1751.25 1982.5 1471.25C1982.84 1466.69 1983.13 1462.09 1983.28 1457.5C1983.66 1448.34 1983.66 1439.16 1983.28 1430C1983.13 1425.41 1982.84 1420.81 1982.5 1416.25C1997.84 1408.62 2012.03 1398.88 2024.66 1387.28C2037.28 1375.69 2048.22 1362.38 2057.12 1347.75C2066.06 1333.12 2072.88 1317.28 2077.38 1300.75ZM870.375 1463.38C858.75 1451.78 849.562 1438 843.25 1422.84C836.969 1407.66 833.75 1391.41 833.75 1375C833.75 1324.44 864.219 1278.88 910.906 1259.5C957.625 1240.16 1011.38 1250.88 1047.12 1286.62C1082.88 1322.38 1093.59 1376.12 1074.25 1422.84C1054.88 1469.53 1009.31 1500 958.75 1500C942.333 1500 926.077 1496.77 910.906 1490.5C895.75 1484.19 881.969 1475 870.375 1463.38ZM1569.38 1699.19C1569.25 1708.12 1565.59 1716.66 1559.19 1722.91L1560 1718.75C1538.03 1735.31 1514.69 1749.94 1490.22 1762.5C1441.17 1787.64 1388.17 1804.16 1333.53 1811.34C1306.25 1814.91 1278.72 1816.12 1251.25 1815C1223.78 1816.12 1196.25 1814.91 1168.97 1811.34C1141.69 1807.75 1114.78 1801.84 1088.53 1793.66C1062.28 1785.47 1036.75 1775.06 1012.28 1762.5C987.812 1749.94 964.469 1735.31 942.5 1718.75C937.188 1712.28 934.469 1704.06 934.875 1695.69C935.281 1687.31 938.812 1679.41 944.719 1673.47C950.656 1667.56 958.563 1664.03 966.938 1663.62C975.313 1663.22 983.531 1665.94 990 1671.25C1008.62 1684.91 1028.38 1696.97 1049.03 1707.28C1069.69 1717.59 1091.16 1726.16 1113.28 1732.84C1135.37 1739.56 1157.99 1744.37 1180.91 1747.22C1203.81 1750.09 1226.94 1751.03 1250 1750C1273.09 1751.25 1296.25 1750.56 1319.25 1747.91C1342.22 1745.25 1364.94 1740.66 1387.12 1734.19C1409.33 1727.7 1430.95 1719.35 1451.75 1709.22C1472.55 1699.1 1492.45 1687.23 1511.25 1673.75C1518.47 1668.34 1527.09 1664.88 1536.06 1665C1545 1665.12 1553.53 1668.78 1559.78 1675.19C1566.03 1681.59 1569.5 1690.22 1569.38 1699.19ZM1585.66 1500.41C1570 1506.91 1553.19 1510.19 1536.25 1510L1537.5 1505C1486.94 1505 1441.38 1474.53 1422 1427.84C1402.66 1381.12 1413.38 1327.38 1449.12 1291.62C1484.88 1255.88 1538.62 1245.16 1585.34 1264.5C1632.03 1283.88 1662.5 1329.44 1662.5 1380C1663.19 1396.93 1660.41 1413.83 1654.34 1429.66C1648.28 1445.5 1639.09 1459.94 1627.28 1472.09C1615.47 1484.25 1601.31 1493.88 1585.66 1500.41Z" clip-rule="evenodd"/></svg>