<svg width="122" height="49" viewBox="0 0 122 49" fill="none" xmlns="http://www.w3.org/2000/svg">
<path fill-rule="evenodd" clip-rule="evenodd" d="M100.632 26.24V18.816H93.3355V14.016C93.3355 12.672 93.3355 10.432 94.3595 9.088C94.7435 8.576 95.6395 7.936 97.0475 7.936C98.1995 7.936 99.5435 8.384 100.568 9.024V0.959999C99.0315 0.383999 97.3675 0 95.3195 0C91.7995 0 89.1755 1.28 87.3195 3.264C84.4395 6.336 84.1195 9.984 84.1195 13.184V18.816H80.7915V26.24H84.1195V47.36H93.3355V26.24H100.632ZM29.67 0.703999V47.36H38.886V35.072L49.894 47.36H62.31L47.782 31.744L61.35 18.816H49.254L38.886 29.312V0.703999H29.67ZM22.784 20.288C20.48 18.944 17.536 17.856 13.312 17.856C10.688 17.856 7.232 18.368 4.672 20.736C3.008 22.272 1.92 24.576 1.92 27.328C1.92 29.504 2.624 31.104 3.968 32.512C5.184 33.728 6.912 34.624 8.576 35.136L10.88 35.84C12.224 36.224 13.056 36.48 13.696 36.864C14.528 37.376 14.72 38.016 14.72 38.528C14.72 39.232 14.336 39.936 13.76 40.384C12.928 41.024 11.456 41.024 10.88 41.024C9.664 41.024 8.32 40.768 7.04 40.128C6.08 39.68 4.8 38.784 3.904 38.016L0 44.224C3.712 47.488 7.872 48.32 11.712 48.32C14.72 48.32 18.176 47.872 20.992 45.056C22.272 43.776 23.936 41.344 23.936 37.568C23.936 35.392 23.36 33.664 21.696 32.128C20.224 30.784 18.56 30.144 16.96 29.632L14.528 28.864C14.1587 28.7409 13.8092 28.6376 13.4836 28.5413C12.7936 28.3372 12.2108 28.1649 11.776 27.904C11.328 27.648 10.88 27.264 10.88 26.624C10.88 26.176 11.136 25.664 11.456 25.344C12.032 24.768 13.12 24.512 14.08 24.512C15.872 24.512 17.728 25.28 19.136 26.112L22.784 20.288ZM66.304 47.36V18.816H75.52V47.36H66.304ZM70.912 12.032C67.904 12.032 65.536 9.664 65.536 6.656C65.536 3.648 67.904 1.28 70.912 1.28C73.92 1.28 76.288 3.648 76.288 6.656C76.288 9.664 73.92 12.032 70.912 12.032ZM121.395 18.816V26.24H115.699V47.36H106.482V26.24H103.283V18.816H106.482V9.6H115.699V18.816H121.395Z" fill="white"/>
</svg>
